<mxfile host="app.diagrams.net" modified="2022-07-23T14:17:57.868Z" agent="5.0 (Windows NT 10.0; Win64; x64) AppleWebKit/537.36 (KHTML, like Gecko) Chrome/103.0.0.0 Safari/537.36" etag="F3wt2pxOGMKaTAZCeMTS" version="20.2.0" type="github">
  <diagram id="mLFEBqNeGUAd6XuBL_M2" name="Page-1">
    <mxGraphModel dx="1422" dy="762" grid="1" gridSize="10" guides="1" tooltips="1" connect="1" arrows="1" fold="1" page="1" pageScale="1" pageWidth="827" pageHeight="1169" math="0" shadow="0">
      <root>
        <mxCell id="0" />
        <mxCell id="1" parent="0" />
        <mxCell id="-SALmHF40oOUEVN--sRl-14" style="edgeStyle=orthogonalEdgeStyle;rounded=0;orthogonalLoop=1;jettySize=auto;html=1;exitX=0.5;exitY=1;exitDx=0;exitDy=0;entryX=0.5;entryY=0;entryDx=0;entryDy=0;" edge="1" parent="1" source="-zqlxDxZ_m39ix5nPBGp-1" target="-SALmHF40oOUEVN--sRl-5">
          <mxGeometry relative="1" as="geometry" />
        </mxCell>
        <mxCell id="-zqlxDxZ_m39ix5nPBGp-1" value="docker0&lt;br&gt;10.1.10.1" style="rounded=0;whiteSpace=wrap;html=1;" parent="1" vertex="1">
          <mxGeometry x="240" y="230" width="120" height="40" as="geometry" />
        </mxCell>
        <mxCell id="-zqlxDxZ_m39ix5nPBGp-23" style="edgeStyle=orthogonalEdgeStyle;rounded=0;orthogonalLoop=1;jettySize=auto;html=1;exitX=0.5;exitY=1;exitDx=0;exitDy=0;entryX=0.5;entryY=0;entryDx=0;entryDy=0;" parent="1" source="-zqlxDxZ_m39ix5nPBGp-2" edge="1">
          <mxGeometry relative="1" as="geometry">
            <mxPoint x="550" y="310" as="targetPoint" />
          </mxGeometry>
        </mxCell>
        <mxCell id="-zqlxDxZ_m39ix5nPBGp-2" value="docker0&lt;br&gt;10.1.20.1" style="rounded=0;whiteSpace=wrap;html=1;" parent="1" vertex="1">
          <mxGeometry x="490" y="230" width="120" height="40" as="geometry" />
        </mxCell>
        <mxCell id="-zqlxDxZ_m39ix5nPBGp-8" value="kube master&lt;br&gt;192.168.1.129" style="whiteSpace=wrap;html=1;aspect=fixed;" parent="1" vertex="1">
          <mxGeometry x="250" y="410" width="100" height="100" as="geometry" />
        </mxCell>
        <mxCell id="-zqlxDxZ_m39ix5nPBGp-26" style="edgeStyle=orthogonalEdgeStyle;rounded=0;orthogonalLoop=1;jettySize=auto;html=1;exitX=0.5;exitY=1;exitDx=0;exitDy=0;entryX=0.425;entryY=-0.1;entryDx=0;entryDy=0;entryPerimeter=0;" parent="1" target="-zqlxDxZ_m39ix5nPBGp-10" edge="1">
          <mxGeometry relative="1" as="geometry">
            <mxPoint x="550" y="440" as="sourcePoint" />
          </mxGeometry>
        </mxCell>
        <mxCell id="-zqlxDxZ_m39ix5nPBGp-10" value="docker0&lt;br&gt;10.1.30.1" style="rounded=0;whiteSpace=wrap;html=1;" parent="1" vertex="1">
          <mxGeometry x="500" y="470" width="120" height="30" as="geometry" />
        </mxCell>
        <mxCell id="-zqlxDxZ_m39ix5nPBGp-17" value="" style="line;strokeWidth=1;rotatable=0;dashed=0;labelPosition=right;align=left;verticalAlign=middle;spacingTop=0;spacingLeft=6;points=[];portConstraint=eastwest;" parent="1" vertex="1">
          <mxGeometry x="210" y="370" width="450" height="10" as="geometry" />
        </mxCell>
        <mxCell id="-zqlxDxZ_m39ix5nPBGp-27" value="" style="endArrow=classic;html=1;rounded=0;entryX=0.5;entryY=0;entryDx=0;entryDy=0;exitX=0.187;exitY=0.9;exitDx=0;exitDy=0;exitPerimeter=0;" parent="1" edge="1">
          <mxGeometry width="50" height="50" relative="1" as="geometry">
            <mxPoint x="549.4999999999999" y="379" as="sourcePoint" />
            <mxPoint x="550.39" y="410" as="targetPoint" />
          </mxGeometry>
        </mxCell>
        <mxCell id="-SALmHF40oOUEVN--sRl-5" value="" style="image;html=1;image=img/lib/clip_art/networking/Router_Icon_128x128.png" vertex="1" parent="1">
          <mxGeometry x="270" y="310" width="60" height="40" as="geometry" />
        </mxCell>
        <mxCell id="-SALmHF40oOUEVN--sRl-18" style="edgeStyle=orthogonalEdgeStyle;rounded=0;orthogonalLoop=1;jettySize=auto;html=1;exitX=0.5;exitY=1;exitDx=0;exitDy=0;" edge="1" parent="1" source="-SALmHF40oOUEVN--sRl-6">
          <mxGeometry relative="1" as="geometry">
            <mxPoint x="550" y="380" as="targetPoint" />
          </mxGeometry>
        </mxCell>
        <mxCell id="-SALmHF40oOUEVN--sRl-6" value="" style="image;html=1;image=img/lib/clip_art/networking/Router_Icon_128x128.png" vertex="1" parent="1">
          <mxGeometry x="520" y="310" width="60" height="40" as="geometry" />
        </mxCell>
        <mxCell id="-SALmHF40oOUEVN--sRl-7" value="" style="image;html=1;image=img/lib/clip_art/networking/Router_Icon_128x128.png" vertex="1" parent="1">
          <mxGeometry x="520" y="410" width="60" height="40" as="geometry" />
        </mxCell>
        <mxCell id="-SALmHF40oOUEVN--sRl-11" value="route 10.1.10.1 192.168.1.129&lt;br&gt;route 10.1.20.1 192.168.1.130" style="whiteSpace=wrap;html=1;shape=mxgraph.basic.roundRectCallout;dx=30;dy=15;size=5;boundedLbl=1;" vertex="1" parent="1">
          <mxGeometry x="580" y="380" width="180" height="50" as="geometry" />
        </mxCell>
        <mxCell id="-SALmHF40oOUEVN--sRl-12" value="route 10.1.10.1 192.168.1.129&lt;br&gt;route 10.1.30.1 192.168.1.131" style="whiteSpace=wrap;html=1;shape=mxgraph.basic.roundRectCallout;dx=30;dy=15;size=5;boundedLbl=1;" vertex="1" parent="1">
          <mxGeometry x="570" y="280" width="180" height="50" as="geometry" />
        </mxCell>
        <mxCell id="-SALmHF40oOUEVN--sRl-13" value="route 10.1.20.1 192.168.1.130&lt;br&gt;route 10.1.30.1 192.168.1.131" style="whiteSpace=wrap;html=1;shape=mxgraph.basic.roundRectCallout;dx=30;dy=15;size=5;boundedLbl=1;" vertex="1" parent="1">
          <mxGeometry x="320" y="280" width="180" height="50" as="geometry" />
        </mxCell>
        <mxCell id="-SALmHF40oOUEVN--sRl-15" value="" style="endArrow=classic;html=1;rounded=0;entryX=0.5;entryY=0;entryDx=0;entryDy=0;exitX=0.187;exitY=0.9;exitDx=0;exitDy=0;exitPerimeter=0;" edge="1" parent="1">
          <mxGeometry width="50" height="50" relative="1" as="geometry">
            <mxPoint x="299.5" y="380" as="sourcePoint" />
            <mxPoint x="300.3899999999999" y="411" as="targetPoint" />
          </mxGeometry>
        </mxCell>
        <mxCell id="-SALmHF40oOUEVN--sRl-16" value="" style="endArrow=classic;html=1;rounded=0;entryX=0.5;entryY=0;entryDx=0;entryDy=0;exitX=0.187;exitY=0.9;exitDx=0;exitDy=0;exitPerimeter=0;" edge="1" parent="1">
          <mxGeometry width="50" height="50" relative="1" as="geometry">
            <mxPoint x="299.5" y="339" as="sourcePoint" />
            <mxPoint x="300.3899999999999" y="370" as="targetPoint" />
          </mxGeometry>
        </mxCell>
      </root>
    </mxGraphModel>
  </diagram>
</mxfile>
